<svg xmlns="http://www.w3.org/2000/svg" xmlns:xlink="http://www.w3.org/1999/xlink" viewBox="0,0,256,256" width="56px" height="56px"><defs><linearGradient x1="17.271" y1="10.439" x2="30.19" y2="36.476" gradientUnits="userSpaceOnUse" id="color-1"><stop offset="0" stop-color="#339af0"></stop><stop offset="1" stop-color="#20c997"></stop></linearGradient></defs><g fill="none" fill-rule="nonzero" stroke="none" stroke-width="1" stroke-linecap="butt" stroke-linejoin="miter" stroke-miterlimit="10" stroke-dasharray="" stroke-dashoffset="0" font-family="none" font-weight="none" font-size="none" text-anchor="none" style="mix-blend-mode: normal"><g transform="scale(5.33333,5.33333)"><path d="M47,35v-22c0,-1.105 -0.895,-2 -2,-2h-42c-1.105,0 -2,0.895 -2,2v22c0,1.105 0.895,2 2,2h42c1.105,0 2,-0.895 2,-2z" fill="url(#color-1)"></path><path d="M4,21v-2c0,-0.552 0.448,-1 1,-1h2c0.552,0 1,0.448 1,1v2c0,0.552 -0.448,1 -1,1h-2c-0.552,0 -1,-0.448 -1,-1z" fill="#cad2d9"></path><path d="M10,21v-2c0,-0.552 0.448,-1 1,-1h2c0.552,0 1,0.448 1,1v2c0,0.552 -0.448,1 -1,1h-2c-0.552,0 -1,-0.448 -1,-1z" fill="#cad2d9"></path><path d="M16,21v-2c0,-0.552 0.448,-1 1,-1h2c0.552,0 1,0.448 1,1v2c0,0.552 -0.448,1 -1,1h-2c-0.552,0 -1,-0.448 -1,-1z" fill="#cad2d9"></path><path d="M22,21v-2c0,-0.552 0.448,-1 1,-1h2c0.552,0 1,0.448 1,1v2c0,0.552 -0.448,1 -1,1h-2c-0.552,0 -1,-0.448 -1,-1z" fill="#cad2d9"></path><path d="M28,21v-2c0,-0.552 0.448,-1 1,-1h2c0.552,0 1,0.448 1,1v2c0,0.552 -0.448,1 -1,1h-2c-0.552,0 -1,-0.448 -1,-1z" fill="#cad2d9"></path><path d="M34,21v-2c0,-0.552 0.448,-1 1,-1h2c0.552,0 1,0.448 1,1v2c0,0.552 -0.448,1 -1,1h-2c-0.552,0 -1,-0.448 -1,-1z" fill="#cad2d9"></path><path d="M40,21v-2c0,-0.552 0.448,-1 1,-1h2c0.552,0 1,0.448 1,1v2c0,0.552 -0.448,1 -1,1h-2c-0.552,0 -1,-0.448 -1,-1z" fill="#cad2d9"></path><path d="M4,33v-2c0,-0.552 0.448,-1 1,-1h2c0.552,0 1,0.448 1,1v2c0,0.552 -0.448,1 -1,1h-2c-0.552,0 -1,-0.448 -1,-1z" fill="#cad2d9"></path><path d="M10,33v-2c0,-0.552 0.448,-1 1,-1h2c0.552,0 1,0.448 1,1v2c0,0.552 -0.448,1 -1,1h-2c-0.552,0 -1,-0.448 -1,-1z" fill="#cad2d9"></path><path d="M16,33v-2c0,-0.552 0.448,-1 1,-1h14c0.552,0 1,0.448 1,1v2c0,0.552 -0.448,1 -1,1h-14c-0.552,0 -1,-0.448 -1,-1z" fill="#cad2d9"></path><path d="M34,33v-2c0,-0.552 0.448,-1 1,-1h2c0.552,0 1,0.448 1,1v2c0,0.552 -0.448,1 -1,1h-2c-0.552,0 -1,-0.448 -1,-1z" fill="#cad2d9"></path><path d="M40,33v-2c0,-0.552 0.448,-1 1,-1h2c0.552,0 1,0.448 1,1v2c0,0.552 -0.448,1 -1,1h-2c-0.552,0 -1,-0.448 -1,-1z" fill="#cad2d9"></path><path d="M4,27v-2c0,-0.552 0.448,-1 1,-1h5c0.552,0 1,0.448 1,1v2c0,0.552 -0.448,1 -1,1h-5c-0.552,0 -1,-0.448 -1,-1z" fill="#cad2d9"></path><path d="M13,27v-2c0,-0.552 0.448,-1 1,-1h2c0.552,0 1,0.448 1,1v2c0,0.552 -0.448,1 -1,1h-2c-0.552,0 -1,-0.448 -1,-1z" fill="#cad2d9"></path><path d="M19,27v-2c0,-0.552 0.448,-1 1,-1h2c0.552,0 1,0.448 1,1v2c0,0.552 -0.448,1 -1,1h-2c-0.552,0 -1,-0.448 -1,-1z" fill="#cad2d9"></path><path d="M25,27v-2c0,-0.552 0.448,-1 1,-1h2c0.552,0 1,0.448 1,1v2c0,0.552 -0.448,1 -1,1h-2c-0.552,0 -1,-0.448 -1,-1z" fill="#cad2d9"></path><path d="M31,27v-2c0,-0.552 0.448,-1 1,-1h2c0.552,0 1,0.448 1,1v2c0,0.552 -0.448,1 -1,1h-2c-0.552,0 -1,-0.448 -1,-1z" fill="#cad2d9"></path><path d="M37,27v-2c0,-0.552 0.448,-1 1,-1h5c0.552,0 1,0.448 1,1v2c0,0.552 -0.448,1 -1,1h-5c-0.552,0 -1,-0.448 -1,-1z" fill="#cad2d9"></path><circle cx="6" cy="15" r="1" fill="#cad2d9"></circle><circle cx="10" cy="15" r="1" fill="#cad2d9"></circle><circle cx="14" cy="15" r="1" fill="#cad2d9"></circle><circle cx="18" cy="15" r="1" fill="#cad2d9"></circle><circle cx="22" cy="15" r="1" fill="#cad2d9"></circle><circle cx="26" cy="15" r="1" fill="#cad2d9"></circle><circle cx="30" cy="15" r="1" fill="#cad2d9"></circle><circle cx="34" cy="15" r="1" fill="#cad2d9"></circle><circle cx="38" cy="15" r="1" fill="#cad2d9"></circle><circle cx="42" cy="15" r="1" fill="#cad2d9"></circle></g></g></svg>