<svg xmlns="http://www.w3.org/2000/svg" xmlns:xlink="http://www.w3.org/1999/xlink" viewBox="0,0,256,256" width="100px" height="100px"><g fill="none" fill-rule="nonzero" stroke="none" stroke-width="1" stroke-linecap="butt" stroke-linejoin="miter" stroke-miterlimit="10" stroke-dasharray="" stroke-dashoffset="0" font-family="none" font-weight="none" font-size="none" text-anchor="none" style="mix-blend-mode: normal"><g transform="scale(2.56,2.56)"><path d="M88.703,70.343c-0.006,-0.094 -0.012,-0.189 -0.019,-0.283c-0.088,-3.59 -0.177,-7.179 -0.265,-10.769c0.16,-2.53 0.016,-5.067 -0.187,-7.62c-0.033,-0.411 -0.154,-0.799 -0.336,-1.146c-0.003,-0.245 -0.004,-0.49 -0.008,-0.735c-0.026,-1.906 -0.451,-3.849 -2.297,-4.798c-1.824,-0.938 -4.45,-0.837 -6.444,-0.732c-0.123,0.006 -0.242,0.026 -0.36,0.047c-0.189,-0.034 -0.39,-0.051 -0.609,-0.041c-16.98,0.816 -33.982,0.538 -50.972,0.265c-4.894,-0.079 -9.789,-0.157 -14.683,-0.236c-0.37,-0.006 -0.721,0.087 -1.042,0.241c-0.892,0.151 -1.744,0.586 -2.373,1.256c-1.294,1.381 -1.392,3.26 -1.383,5.05c0.021,4.136 0.05,8.271 0.076,12.407c0.025,4.132 -0.037,8.276 0.076,12.407c0.05,1.848 0.558,3.628 2.295,4.554c0.746,0.398 1.629,0.516 2.464,0.477c0.104,-0.005 0.208,-0.019 0.312,-0.03c1.775,0.273 3.54,0.155 5.345,0.054c0.566,-0.032 1.133,-0.053 1.699,-0.079c6.393,0.42 12.804,0.558 19.211,0.397c2.299,-0.058 4.596,-0.177 6.893,-0.292c5.838,0.202 11.674,0.441 17.514,0.564c4.927,0.104 9.855,0.118 14.781,-0.036c0.381,-0.012 0.713,-0.094 1.004,-0.221c1.279,-0.021 2.569,-0.152 3.77,-0.471c2.673,0.065 5.233,-1.907 5.683,-4.637c0.301,-1.823 -0.024,-3.761 -0.145,-5.593z" fill="#00aeff"></path><path d="M13.228,55.594c0.639,0.017 1.277,-0.033 1.911,-0.109c0.409,0.007 0.818,0.031 1.225,0.08c0.085,0.014 0.171,0.025 0.256,0.041c0.405,0.073 0.789,0.063 1.156,-0.151c0.03,-0.017 0.057,-0.043 0.086,-0.063c0.015,-0.001 0.029,0.003 0.044,0.001c0.769,-0.103 1.246,-0.719 1.301,-1.473c0.05,-0.688 0.084,-1.376 0.099,-2.065c0.015,-0.683 0.047,-1.381 -0.044,-2.059c-0.069,-0.515 -0.248,-0.981 -0.611,-1.369c-0.403,-0.431 -0.96,-0.635 -1.536,-0.675c-0.624,-0.044 -1.248,0.169 -1.863,0.283c-0.191,0.02 -0.382,0.039 -0.573,0.046c-0.284,-0.015 -0.569,-0.02 -0.852,-0.015c-0.042,0.001 -0.083,0.01 -0.124,0.015c-0.124,-0.033 -0.252,-0.055 -0.387,-0.049c-0.828,0.037 -1.481,0.659 -1.5,1.5c-0.018,0.807 -0.002,1.613 0.033,2.419c0.005,0.409 0.011,0.817 0.017,1.226c0.001,0.08 0.031,0.15 0.044,0.227c-0.136,0.283 -0.198,0.575 -0.155,0.892c0.1,0.741 0.72,1.279 1.473,1.298z" fill="#fafafa"></path><path d="M23.013,54.938c0.122,0.156 0.267,0.295 0.458,0.411c0.337,0.204 0.643,0.256 1.026,0.296c0.406,0.042 0.818,0.052 1.225,0.075c0.888,0.051 1.776,0.102 2.664,0.152c0.604,0.035 1.183,-0.412 1.404,-0.974c0.358,-0.272 0.603,-0.682 0.607,-1.163c0.006,-0.764 0.012,-1.528 0.018,-2.291c0.007,-0.852 0.169,-1.912 -0.35,-2.645c-0.421,-0.594 -1.004,-0.88 -1.718,-0.947c-0.4,-0.037 -0.798,0.046 -1.193,0.107c-0.17,0.026 -0.34,0.052 -0.509,0.078c-0.19,-0.092 -0.398,-0.151 -0.609,-0.141c-0.128,0.006 -0.254,0.026 -0.376,0.058c-0.451,-0.051 -0.903,-0.101 -1.354,-0.152c-0.203,-0.111 -0.431,-0.177 -0.682,-0.166c-0.78,0.035 -1.54,0.661 -1.5,1.5c0.073,1.53 0.147,3.059 0.22,4.589c0.025,0.509 0.279,0.945 0.669,1.213z" fill="#fafafa"></path><path d="M34.591,55.932c0.783,0.141 1.637,-0.008 2.427,-0.055c0.782,-0.047 1.563,-0.094 2.345,-0.141c0.782,-0.047 1.538,-0.656 1.5,-1.5c-0.001,-0.027 -0.009,-0.054 -0.011,-0.081c0.314,-0.269 0.52,-0.657 0.523,-1.114c0.003,-0.415 -0.02,-0.832 -0.057,-1.248c-0.013,-0.283 -0.026,-0.565 -0.039,-0.848c-0.04,-0.876 0.06,-1.926 -0.61,-2.597c-0.682,-0.683 -1.663,-0.584 -2.544,-0.586c-0.498,-0.001 -0.996,-0.002 -1.495,-0.004c-0.168,-0.064 -0.341,-0.102 -0.509,-0.095c-0.162,0.007 -0.329,0.043 -0.49,0.1c-0.038,0.001 -0.077,0 -0.115,0.002c-0.19,-0.09 -0.398,-0.141 -0.617,-0.131c-0.811,0.036 -1.502,0.659 -1.5,1.5c0.001,0.633 0.002,1.266 0.004,1.899c-0.011,0.134 -0.023,0.268 -0.034,0.402c-0.058,0.677 -0.116,1.354 -0.174,2.031c-0.034,0.401 -0.09,0.784 0.02,1.183c0.176,0.639 0.719,1.164 1.376,1.283z" fill="#fafafa"></path><path d="M44.917,55.323c0.154,0.065 0.304,0.1 0.452,0.112c0.064,0.03 0.124,0.063 0.194,0.088c0.4,0.141 0.849,0.141 1.27,0.174c0.379,0.03 0.759,0.06 1.138,0.089c0.793,0.062 1.587,0.125 2.38,0.187c0.784,0.062 1.534,-0.734 1.5,-1.5c-0.01,-0.215 -0.056,-0.412 -0.132,-0.588c0.021,-0.094 0.055,-0.182 0.06,-0.282c0.037,-0.699 0.048,-1.398 0.029,-2.098c-0.022,-0.772 -0.029,-1.596 -0.185,-2.355c-0.133,-0.646 -0.619,-1.199 -1.259,-1.385c-0.39,-0.113 -0.767,-0.092 -1.164,-0.077c-0.695,0.027 -1.39,0.054 -2.084,0.081c-0.43,0.017 -0.873,0.012 -1.292,0.119c-0.177,0.045 -0.342,0.126 -0.5,0.22c-0.221,0.069 -0.428,0.179 -0.588,0.353c-0.244,0.265 -0.357,0.552 -0.413,0.89c-0.176,0.522 -0.19,1.093 -0.203,1.643c-0.008,0.326 -0.015,0.652 -0.024,0.978c-0.042,0.66 -0.079,1.32 -0.101,1.98c-0.02,0.595 0.394,1.148 0.922,1.371z" fill="#fafafa"></path><path d="M54.879,53.799c-0.026,0.175 -0.037,0.355 -0.011,0.549c0.076,0.567 0.384,1.053 0.888,1.343c0.424,0.243 0.883,0.246 1.351,0.232c1.064,-0.032 2.127,-0.064 3.191,-0.096c0.105,-0.003 0.205,-0.041 0.308,-0.064c0.16,0.02 0.319,0.04 0.479,0.06c0.354,0.044 0.821,-0.199 1.061,-0.439c0.26,-0.26 0.456,-0.687 0.439,-1.061c-0.003,-0.061 -0.013,-0.122 -0.022,-0.184c0.038,-0.055 0.086,-0.104 0.116,-0.162c0.239,-0.456 0.28,-0.943 0.281,-1.448c0.002,-0.724 0.004,-1.447 0.006,-2.171c0.001,-0.4 0.004,-0.804 -0.092,-1.196c-0.141,-0.574 -0.533,-1.078 -1.046,-1.367c-0.754,-0.425 -1.652,-0.328 -2.482,-0.31c-0.372,0.008 -0.744,0.016 -1.115,0.024c-0.447,0.01 -0.903,-0.003 -1.344,0.09c-0.386,0.081 -0.738,0.276 -1.019,0.548c-0.54,0.229 -0.946,0.738 -0.93,1.37c0.013,0.531 0.027,1.061 0.04,1.592c-0.047,0.297 -0.094,0.595 -0.141,0.892c-0.084,0.53 -0.184,1.045 -0.043,1.576c0.022,0.076 0.056,0.148 0.085,0.222z" fill="#fafafa"></path><path d="M65.463,53.327c-0.001,0.409 -0.036,0.857 0.079,1.254c0.2,0.689 0.698,1.201 1.394,1.393c0.461,0.127 1.003,0.097 1.48,0.121c0.413,0.021 0.826,0.041 1.238,0.062c0.844,0.042 1.687,0.084 2.531,0.126c0.785,0.039 1.535,-0.718 1.5,-1.5c-0.007,-0.156 -0.053,-0.295 -0.098,-0.433c0.161,-0.236 0.28,-0.507 0.297,-0.826c0.042,-0.751 0.065,-1.503 0.069,-2.255c0.004,-0.904 0.125,-1.979 -0.588,-2.667c-0.06,-0.058 -0.127,-0.103 -0.193,-0.15c-0.264,-0.304 -0.635,-0.504 -1.08,-0.484c-0.088,0.004 -0.156,0.038 -0.237,0.053c-0.428,-0.043 -0.867,-0.043 -1.266,-0.07c-0.71,-0.048 -1.421,-0.107 -2.132,-0.143c-0.832,-0.042 -1.666,0.149 -2.278,0.746c-0.485,0.473 -0.636,1.086 -0.686,1.72c-0.011,0.092 -0.026,0.183 -0.032,0.274c-0.042,0.663 -0.028,1.33 0.002,1.996c0.001,0.261 0.001,0.522 0,0.783z" fill="#fafafa"></path><path d="M76.517,54.538c0.124,0.314 0.263,0.567 0.538,0.779c0.253,0.195 0.58,0.337 0.909,0.322c0.154,-0.007 0.308,-0.039 0.455,-0.088c0.503,0.134 1.045,0.159 1.576,0.179c0.802,0.031 1.604,0.031 2.406,0.002c0.243,-0.009 0.481,-0.082 0.696,-0.197c0.039,0.003 0.08,0.012 0.118,0.01c0.859,-0.038 1.442,-0.66 1.5,-1.5c0.051,-0.737 0.083,-1.476 0.093,-2.215c0.009,-0.67 0.036,-1.36 -0.04,-2.026c-0.067,-0.593 -0.234,-1.138 -0.669,-1.571c-0.34,-0.339 -0.804,-0.564 -1.277,-0.636c-0.749,-0.115 -1.512,-0.1 -2.267,-0.057c-0.346,0.02 -0.692,0.05 -1.036,0.09c-0.43,0.051 -0.887,0.078 -1.307,0.192c-0.534,0.144 -1.001,0.48 -1.272,0.968c-0.007,0.012 -0.01,0.026 -0.016,0.038c-0.013,0.021 -0.03,0.038 -0.042,0.06c-0.11,0.207 -0.161,0.41 -0.178,0.619c-0.047,0.271 -0.064,0.548 -0.086,0.822c-0.022,0.276 -0.018,0.553 -0.03,0.83c-0.227,1.126 -0.509,2.269 -0.071,3.379z" fill="#fafafa"></path><path d="M24.95,64.648c0.157,-0.92 0.084,-1.894 0.091,-2.824c0.007,-1.049 -0.101,-2.087 -1.119,-2.657c-0.791,-0.443 -1.761,-0.352 -2.633,-0.355c-1.834,-0.006 -3.669,-0.012 -5.503,-0.018c-0.767,-0.002 -1.6,-0.077 -2.334,0.181c-0.039,-0.001 -0.078,-0.005 -0.117,-0.004c-0.085,-0.016 -0.172,-0.027 -0.261,-0.027c-0.817,0 -1.496,0.687 -1.5,1.5c-0.002,0.334 -0.004,0.669 -0.005,1.003c-0.016,0.182 -0.014,0.366 -0.003,0.552c-0.002,0.409 -0.004,0.819 -0.007,1.228c-0.005,0.969 -0.142,2.072 0.592,2.83c0.744,0.769 1.895,0.622 2.869,0.632c0.889,0.01 1.777,0.019 2.666,0.029c0.923,0.01 1.845,0.02 2.768,0.03c0.851,0.009 1.833,0.139 2.665,-0.094c0.959,-0.268 1.663,-1.02 1.831,-2.006z" fill="#fafafa"></path><path d="M33.305,66.728c1.101,0.09 2.341,-0.152 2.9,-1.227c0.296,-0.569 0.319,-1.185 0.325,-1.812c0.004,-0.477 0.005,-0.953 0.002,-1.43c-0.006,-1.035 0.098,-2.239 -0.738,-3.008c-0.579,-0.533 -1.309,-0.547 -2.05,-0.565c-0.488,-0.012 -0.975,-0.024 -1.463,-0.036c-0.557,-0.014 -1.115,-0.032 -1.672,-0.041c-0.728,-0.011 -1.389,0.15 -1.96,0.616c-0.456,0.373 -0.686,0.958 -0.739,1.541c-0.147,0.532 -0.17,1.082 -0.053,1.631c-0.136,0.489 -0.187,1.003 -0.122,1.487c0.032,0.238 0.093,0.476 0.172,0.709c0.001,0.072 -0.002,0.145 0.003,0.216c0.038,0.536 0.186,1.029 0.561,1.43c0.374,0.4 0.918,0.601 1.46,0.599c0.349,-0.001 0.704,-0.086 1.05,-0.137c0.28,-0.042 0.56,-0.084 0.84,-0.126c0.001,0 0.003,0 0.004,0c0.492,0.059 0.986,0.112 1.48,0.153z" fill="#fafafa"></path><path d="M39.047,59.344c-0.716,0.744 -0.539,1.902 -0.538,2.848c0.001,0.72 -0.013,1.441 0.003,2.161c0.023,1.035 0.486,2.113 1.588,2.39c0.466,0.117 0.971,0.112 1.449,0.123c0.412,0.009 0.825,0.009 1.237,-0.002c0.825,-0.022 1.647,-0.086 2.466,-0.187c0.412,-0.051 0.755,-0.134 1.061,-0.439c0.26,-0.26 0.456,-0.687 0.439,-1.061c-0.015,-0.337 -0.121,-0.68 -0.339,-0.942c0.127,-0.598 0.216,-1.207 0.224,-1.814c0.005,-0.348 -0.016,-0.694 -0.057,-1.039c-0.064,-0.534 -0.13,-1.021 -0.424,-1.488c-0.522,-0.831 -1.455,-1.128 -2.388,-1.159c-0.697,-0.023 -1.398,0.004 -2.096,0.008c-0.905,0.003 -1.934,-0.116 -2.625,0.601z" fill="#fafafa"></path><path d="M49.88,60.683c-0.11,0.369 -0.142,0.762 -0.115,1.162c0.035,0.511 0.071,1.022 0.107,1.534c0,0.244 0.001,0.489 0.001,0.733c0.001,0.402 -0.033,0.848 0.081,1.239c0.202,0.69 0.678,1.158 1.343,1.405c0.698,0.26 1.541,0.121 2.268,0.091c0.802,-0.033 1.604,-0.066 2.406,-0.098c0.683,-0.028 1.344,-0.515 1.477,-1.192c0.16,-0.235 0.277,-0.503 0.291,-0.819c0.032,-0.698 0.064,-1.396 0.096,-2.094c0.035,-0.774 0.104,-1.598 -0.302,-2.292c-0.054,-0.314 -0.171,-0.601 -0.409,-0.838c-0.26,-0.26 -0.687,-0.456 -1.061,-0.439c-0.106,0.005 -0.209,0.02 -0.309,0.044c-0.104,-0.024 -0.204,-0.056 -0.311,-0.071c-0.782,-0.114 -1.572,-0.186 -2.361,-0.226c-0.899,-0.046 -1.933,-0.163 -2.639,0.519c-0.385,0.368 -0.519,0.843 -0.563,1.342z" fill="#fafafa"></path><path d="M68.253,66.167c0.628,-0.628 0.701,-1.536 0.63,-2.369c-0.063,-0.743 -0.123,-1.486 -0.189,-2.229c-0.048,-0.533 -0.114,-0.994 -0.353,-1.476c-0.267,-0.538 -0.777,-0.94 -1.345,-1.121c-0.367,-0.117 -0.732,-0.126 -1.096,-0.09c-1.054,-0.141 -2.106,-0.222 -3.171,-0.181c-0.117,0.005 -0.224,0.036 -0.333,0.063c-0.009,0 -0.017,-0.003 -0.025,-0.003c-0.133,0.018 -0.266,0.036 -0.399,0.054c-0.254,0.071 -0.475,0.2 -0.662,0.386c-0.057,0.057 -0.106,0.131 -0.153,0.192c-0.042,0.054 -0.104,0.124 -0.144,0.19c-0.01,0.017 -0.019,0.035 -0.027,0.053c-0.051,0.113 -0.114,0.254 -0.156,0.371c-0.004,0.01 -0.007,0.021 -0.011,0.032c-0.006,0.019 -0.01,0.039 -0.013,0.059c-0.025,0.142 -0.047,0.295 -0.058,0.439c-0.001,0.008 0.002,0.019 0.002,0.028c-0.032,0.069 -0.069,0.136 -0.095,0.208c-0.26,0.721 -0.096,1.59 -0.054,2.339c0.02,0.353 0.04,0.705 0.06,1.058c0.024,0.421 0.024,0.868 0.156,1.271c0.207,0.637 0.698,1.159 1.352,1.344c0.424,0.119 0.873,0.09 1.308,0.085c0.727,-0.008 1.453,-0.015 2.18,-0.023c0.935,-0.01 1.876,0.04 2.596,-0.68zM64.401,62.35c0.005,-0.001 0.011,-0.001 0.016,-0.002v0c-0.006,0.001 -0.008,0.001 -0.016,0.002z" fill="#fafafa"></path><path d="M80.288,66.639c0.507,0.029 1.014,0.057 1.521,0.086c0.589,0.033 1.215,0.129 1.79,-0.053c1.071,-0.34 1.523,-1.37 1.584,-2.417c0.053,-0.91 0.026,-1.915 -0.12,-2.817c-0.168,-1.037 -0.833,-1.973 -1.881,-2.27c-0.923,-0.261 -1.976,-0.149 -2.927,-0.159c-2.114,-0.022 -4.229,-0.044 -6.343,-0.066c-0.861,-0.205 -1.872,0.149 -2.346,1.042c-0.348,0.657 -0.288,1.418 -0.27,2.135c0.018,0.736 0.003,1.482 0.056,2.217c0.068,0.95 0.549,1.747 1.509,2.013c0.68,0.189 1.446,0.227 2.151,0.265c0.923,0.049 1.849,-0.002 2.767,-0.117c0.836,0.046 1.672,0.093 2.509,0.141zM72.39,61.093c0.002,0.004 0.004,0.007 0.006,0.011c0.014,0.041 0.03,0.08 0.047,0.12c-0.003,-0.003 -0.007,-0.006 -0.01,-0.01c-0.014,-0.041 -0.028,-0.081 -0.043,-0.121z" fill="#fafafa"></path><path d="M18.374,69.997c-0.043,-0.023 -0.09,-0.032 -0.134,-0.052c-0.299,-0.189 -0.637,-0.325 -0.978,-0.383c-0.498,-0.085 -0.978,-0.096 -1.481,-0.095c-0.461,0.001 -0.926,-0.017 -1.386,0.005c-0.472,0.022 -0.92,0.17 -1.289,0.433c-0.774,0.31 -1.406,1.002 -1.563,1.883c-0.197,1.099 -0.003,2.271 0.142,3.375c-0.004,0.044 -0.012,0.087 -0.015,0.131c-0.067,0.78 0.33,1.53 1.005,1.921c0.514,0.297 1.122,0.322 1.698,0.35c0.945,0.046 1.893,0.023 2.835,-0.068c0.719,-0.07 1.454,-0.109 2.006,-0.636c0.553,-0.528 0.577,-1.269 0.588,-1.978c0.008,-0.547 0.017,-1.094 0.025,-1.642c0.008,-0.54 0.005,-1.115 -0.17,-1.631c-0.227,-0.674 -0.641,-1.274 -1.283,-1.613z" fill="#fafafa"></path><path d="M29.988,70.973c-0.331,-0.673 -1.003,-1.136 -1.738,-1.247c-0.656,-0.099 -1.316,-0.156 -1.98,-0.134c-0.666,0.022 -1.375,0.063 -1.993,0.323c-0.183,0.077 -0.345,0.172 -0.496,0.276c-0.06,0.028 -0.12,0.047 -0.179,0.081c-0.554,0.319 -0.878,0.807 -1.103,1.388c-0.094,0.242 -0.085,0.52 -0.009,0.78c-0.03,0.212 -0.055,0.425 -0.081,0.636c-0.069,0.568 -0.119,1.138 -0.149,1.709c-0.036,0.691 -0.084,1.398 0.305,2.011c0.494,0.779 1.346,0.949 2.198,1c0.542,0.032 1.085,0.051 1.629,0.055c0.617,0.005 1.23,0.001 1.839,-0.118c0.728,-0.142 1.344,-0.58 1.761,-1.183c0.378,-0.545 0.477,-1.234 0.52,-1.879c0.037,-0.556 0.021,-1.117 -0.045,-1.671c-0.081,-0.699 -0.165,-1.389 -0.479,-2.027z" fill="#fafafa"></path><path d="M57.801,69.736c-2.607,0.047 -5.214,0.094 -7.821,0.142c-1.827,-0.174 -3.643,-0.15 -5.478,0.044c-2.707,-0.05 -5.414,-0.083 -8.121,-0.155c-0.28,-0.007 -0.523,0.071 -0.729,0.199c-0.942,-0.09 -1.859,0.437 -2.255,1.403c-0.471,1.149 -0.319,3.189 -0.003,4.384c0.428,1.616 2.016,1.668 3.392,1.6c0.005,0 0.011,-0.001 0.016,-0.001c4.261,0.304 8.529,0.49 12.8,0.535c2.309,0.024 4.617,0.01 6.926,-0.043c1.616,-0.037 4.661,0.433 5.754,-1.119c0.553,-0.786 0.472,-1.791 0.507,-2.708c0.034,-0.89 0.216,-1.917 -0.105,-2.77c-0.749,-1.994 -3.207,-1.541 -4.883,-1.511z" fill="#fafafa"></path><path d="M74.452,72.974c-0.03,-0.733 -0.268,-1.497 -0.851,-1.981c-0.001,-0.001 -0.003,-0.002 -0.005,-0.003c-0.595,-0.961 -1.912,-1.301 -3.003,-1.321c-0.49,-0.009 -0.981,0.022 -1.47,0.039c-0.1,0.003 -0.205,0.004 -0.309,0.005c-0.317,-0.066 -0.64,-0.056 -0.949,0.041c-0.171,0.019 -0.34,0.047 -0.499,0.096c-1.454,0.445 -1.699,2.075 -1.796,3.379c-0.036,0.486 -0.021,0.974 0.039,1.457c0.081,0.652 0.165,1.339 0.464,1.935c0.197,0.393 0.532,0.685 0.931,0.854c0.372,0.157 0.758,0.178 1.158,0.171c0.522,-0.009 1.043,-0.018 1.565,-0.027c0.522,-0.009 1.043,-0.018 1.565,-0.027c0.642,-0.011 1.26,-0.056 1.846,-0.34c1.131,-0.549 1.396,-1.81 1.321,-2.949c-0.029,-0.446 0.011,-0.886 -0.007,-1.329z" fill="#fafafa"></path><path d="M85.256,72.374c-0.179,-1.097 -0.913,-2.233 -1.946,-2.697c-0.642,-0.289 -1.324,-0.402 -2.026,-0.329c-0.616,0.064 -1.227,0.178 -1.838,0.279c-0.69,0.115 -1.322,0.259 -1.843,0.769c-0.023,0.022 -0.036,0.05 -0.058,0.073c-0.723,0.687 -0.93,1.736 -0.962,2.73c-0.041,1.249 -0.297,2.819 0.8,3.717c1.001,0.82 2.312,0.784 3.541,0.747c0.568,-0.017 1.135,-0.057 1.699,-0.121c0.443,-0.05 0.839,-0.09 1.24,-0.302c0.43,-0.227 0.737,-0.604 0.924,-1.045c0.219,-0.519 0.34,-1.088 0.431,-1.643c0.123,-0.745 0.16,-1.43 0.038,-2.178zM82.067,72.426c0.001,0.001 0.003,0.003 0.005,0.005c-0.003,-0.001 -0.006,-0.003 -0.008,-0.004c-0.002,-0.003 -0.007,-0.009 -0.006,-0.009c0.002,0.003 0.005,0.005 0.009,0.008zM82.042,73.857c0.001,0.001 0.002,0.001 0.003,0.002c-0.018,0.016 -0.028,0.023 -0.037,0.029c0.011,-0.01 0.022,-0.021 0.034,-0.031z" fill="#fafafa"></path><g><path d="M13.432,47.249c-0.359,-0.006 -0.7,0.091 -1.008,0.249c-2.862,1.479 -3.648,3.488 -3.571,6.566c0.105,4.184 0.065,8.378 0.091,12.564c0.024,4.01 -0.125,8.065 0.077,12.069c0.092,1.832 0.793,3.589 2.655,4.239c0.706,0.246 1.442,0.281 2.18,0.215c4.39,0.697 9.273,0.175 13.723,0.224c12.301,0.137 24.598,0.156 36.897,0.418c4.941,0.105 9.884,0.12 14.824,-0.035c0.368,-0.012 0.689,-0.091 0.964,-0.22c1.277,-0.018 2.577,-0.147 3.785,-0.469c2.696,0.094 5.193,-2.006 5.527,-4.773c0.21,-1.741 0.295,-3.531 0.3,-5.344c0.013,-4.954 -0.572,-10.082 -0.817,-14.869c-0.148,-2.894 0.382,-8.773 -2.852,-10.246c-1.783,-0.812 -4.235,-0.73 -6.15,-0.627c-0.132,0.007 -0.261,0.025 -0.388,0.051c-0.18,-0.035 -0.371,-0.055 -0.581,-0.045c-15.096,0.726 -30.209,0.586 -45.316,0.355" fill="none"></path><path d="M13.432,47.249c0,0 -0.18,-0.027 -0.525,0.044c-0.347,0.071 -0.816,0.312 -1.401,0.661c-0.58,0.355 -1.279,0.879 -1.863,1.724c-0.581,0.845 -0.947,2.015 -1.045,3.327c-0.185,5.202 -0.23,12.585 -0.533,21.819c-0.019,1.158 -0.02,2.348 0.008,3.567c0.009,1.244 0.208,2.783 1.203,4.063c0.991,1.322 2.777,1.89 4.269,1.81c0.24,-0.005 0.272,-0.018 0.32,0l0.466,0.075c0.34,0.057 0.681,0.091 1.025,0.137c0.685,0.075 1.377,0.134 2.07,0.171c2.777,0.156 5.605,0.044 8.448,0.044c2.815,0.029 5.828,0.141 8.853,0.205c6.098,0.131 12.479,0.268 19.082,0.409c3.312,0.055 6.678,0.111 10.094,0.168c3.44,0.001 6.929,0.001 10.459,0.002c1.023,-0.003 2.042,-0.006 3.043,-0.009c0.5,-0.002 0.996,-0.004 1.485,-0.006c0.25,-0.008 0.437,0.017 0.886,-0.036c0.195,-0.025 0.393,-0.064 0.591,-0.119l0.238,-0.074l0.001,-0.001c0,0 0.004,-0.001 -0.002,-0.001l0.339,-0.013l0.68,-0.042c0.455,-0.037 0.911,-0.087 1.369,-0.16l0.688,-0.124l0.576,-0.131c0.032,-0.009 0.038,-0.009 0.014,-0.005l0.412,-0.011c0.272,-0.035 0.549,-0.049 0.814,-0.112c2.153,-0.421 3.97,-1.833 4.96,-3.707c0.24,-0.472 0.45,-0.965 0.573,-1.483c0.077,-0.255 0.115,-0.519 0.158,-0.781c0.045,-0.276 0.054,-0.438 0.079,-0.661c0.085,-0.837 0.142,-1.669 0.176,-2.495c0.07,-1.652 0.052,-3.277 -0.009,-4.875c-0.121,-3.196 -0.419,-6.281 -0.666,-9.27c-0.115,-1.479 -0.259,-2.999 -0.295,-4.376c-0.04,-1.453 -0.062,-2.972 -0.283,-4.511c-0.116,-0.771 -0.262,-1.549 -0.544,-2.336c-0.277,-0.778 -0.643,-1.586 -1.289,-2.286c-0.604,-0.695 -1.562,-1.246 -2.314,-1.454c-0.789,-0.255 -1.555,-0.361 -2.298,-0.426c-1.462,-0.103 -2.922,-0.037 -4.148,0.109l-0.038,-0.001h-0.009c0.037,-0.006 0.019,-0.007 0,-0.008l-0.091,-0.006l-0.365,-0.017c-0.204,0.002 -0.337,0.018 -0.509,0.026l-0.97,0.061c-0.644,0.04 -1.283,0.079 -1.917,0.119c-5.069,0.297 -9.79,0.506 -14.099,0.655c-8.617,0.297 -15.577,0.421 -20.379,0.517c-4.777,0.094 -7.448,0.147 -7.448,0.147c0,0 2.668,0.126 7.442,0.352c4.8,0.204 11.759,0.484 20.403,0.597c4.322,0.056 9.065,0.053 14.169,-0.048c0.638,-0.015 1.282,-0.031 1.931,-0.046l0.978,-0.025c0.154,-0.002 0.348,-0.015 0.471,-0.007l0.126,0.021l0.031,0.003c0,0 0.004,0.001 0.062,-0.002l0.052,0.005l0.208,0.019c1.388,-0.098 2.618,-0.103 3.861,0.025c0.606,0.074 1.201,0.182 1.719,0.373c0.566,0.198 0.825,0.406 1.147,0.755c0.601,0.701 0.928,1.945 1.072,3.237c0.151,1.312 0.14,2.709 0.141,4.198c0.004,1.567 0.111,3.018 0.193,4.544c0.18,3.019 0.41,6.072 0.473,9.15c0.032,1.538 0.024,3.082 -0.063,4.622c-0.043,0.77 -0.106,1.538 -0.193,2.302c-0.05,0.425 -0.082,0.683 -0.159,0.943c-0.063,0.27 -0.184,0.525 -0.31,0.775c-0.531,0.992 -1.564,1.765 -2.661,1.96c-0.136,0.036 -0.275,0.031 -0.411,0.055l-0.207,0.001c-0.23,0.012 -0.434,-0.012 -0.6,0.051l-0.372,0.091l-0.263,0.056l-0.536,0.093c-0.362,0.056 -0.733,0.094 -1.108,0.123l-0.568,0.032l-0.915,0.022l-0.324,0.145l-0.076,0.031l-0.023,0.006c-0.031,0.009 -0.068,0.016 -0.11,0.021c-0.027,0.011 -0.324,0.006 -0.56,0.008c-0.483,0 -0.973,0.001 -1.467,0.001c-0.988,0.002 -1.996,0.003 -3.006,0.005c-3.491,0.012 -6.94,0.025 -10.341,0.036c-3.419,-0.02 -6.79,-0.041 -10.105,-0.06c-6.611,-0.008 -12.998,-0.016 -19.104,-0.023c-3.059,0.017 -5.979,-0.01 -8.929,0.053c-2.92,0.094 -5.688,0.297 -8.321,0.245c-0.658,-0.011 -1.306,-0.042 -1.944,-0.087c-0.317,-0.031 -0.636,-0.05 -0.948,-0.09l-0.51,-0.063c-0.141,-0.024 -0.269,-0.035 -0.405,-0.012l-0.253,0.02c-1.092,0.08 -2.023,-0.219 -2.609,-0.91c-0.603,-0.705 -0.86,-1.735 -0.909,-2.871c-0.08,-1.186 -0.132,-2.352 -0.166,-3.495c-0.123,-9.174 -0.505,-16.687 -0.639,-21.779c0.017,-1.257 0.287,-2.357 0.778,-3.186c0.494,-0.828 1.133,-1.384 1.678,-1.771c0.551,-0.383 0.997,-0.654 1.329,-0.745c0.329,-0.091 0.512,-0.079 0.512,-0.079z" fill="#363636"></path></g><path d="M50.395,44.537c0,0 0.034,-0.376 0.098,-1.076c0.088,-0.701 0.206,-1.74 0.55,-3.024c0.343,-1.273 0.868,-2.832 1.916,-4.326c1.035,-1.492 2.64,-2.858 4.769,-3.538c1.05,-0.364 2.216,-0.542 3.475,-0.635c1.255,-0.096 2.608,-0.083 4.077,-0.172c1.464,-0.096 3.076,-0.319 4.645,-0.938c1.47,-0.583 3.07,-1.3 4.444,-2.72c0.664,-0.716 1.236,-1.596 1.571,-2.553c0.339,-0.957 0.483,-1.97 0.462,-2.968c-0.05,-1.999 -0.696,-3.954 -1.865,-5.638c-0.298,-0.417 -0.62,-0.824 -0.986,-1.202c-0.358,-0.373 -0.733,-0.668 -1.105,-1.004c-0.361,-0.345 -0.775,-0.618 -1.19,-0.895c-0.413,-0.28 -0.823,-0.571 -1.275,-0.781c-1.749,-0.98 -3.691,-1.572 -5.648,-1.891c-3.936,-0.656 -7.76,-0.238 -11.275,0.578c-3.51,0.834 -6.793,2.189 -9.627,3.84c-2.845,1.628 -5.313,3.401 -7.652,4.942c-2.331,1.551 -4.54,2.877 -6.67,3.849c-4.249,1.969 -8.163,2.365 -10.784,2.067c-1.317,-0.14 -2.328,-0.401 -2.997,-0.622c-0.668,-0.225 -1.015,-0.367 -1.015,-0.367c0,0 0.321,0.188 0.961,0.503c0.642,0.309 1.628,0.706 2.965,1.011c2.652,0.629 6.817,0.675 11.507,-1.011c2.335,-0.824 4.767,-2.032 7.251,-3.443c2.489,-1.401 5.046,-3.003 7.8,-4.397c2.738,-1.414 5.734,-2.504 8.979,-3.188c3.223,-0.662 6.672,-0.96 9.993,-0.399c1.657,0.269 3.24,0.746 4.621,1.5c0.366,0.157 0.682,0.385 1.008,0.596c0.327,0.21 0.66,0.411 0.938,0.676c0.283,0.25 0.608,0.489 0.86,0.74c0.248,0.244 0.473,0.514 0.687,0.794c1.698,2.278 1.983,5.547 0.361,7.327c-0.794,0.938 -2.044,1.653 -3.328,2.241c-1.21,0.567 -2.518,0.85 -3.86,1.034c-2.688,0.325 -5.549,0.459 -7.94,1.536c-1.18,0.526 -2.245,1.189 -3.085,1.998c-0.835,0.808 -1.507,1.675 -1.985,2.56c-0.975,1.763 -1.325,3.448 -1.522,4.793c-0.194,1.355 -0.178,2.411 -0.173,3.121c0.027,0.704 0.044,1.082 0.044,1.082z" fill="#363636"></path></g></g></svg>