<?xml version="1.0" encoding="iso-8859-1"?>
<!-- Uploaded to: SVG Repo, www.svgrepo.com, Generator: SVG Repo Mixer Tools -->
<svg height="50" width="50" version="1.1" id="Layer_1" xmlns="http://www.w3.org/2000/svg" xmlns:xlink="http://www.w3.org/1999/xlink" 
	 viewBox="0 0 297 297" xml:space="preserve">
<g>
	<path style="fill:#184C77;" d="M289.335,95.518H267.3V75.916c0-15.341-12.481-27.822-27.822-27.822h-91.216H57.28
		c-15.342,0-27.823,12.481-27.823,27.822v19.602H7.665C3.432,95.518,0,98.95,0,103.182v15.808c0,1.513,0.448,2.992,1.287,4.251
		l31.616,47.424c1.476,2.216,3.907,3.414,6.385,3.414c1.46,0,2.938-0.417,4.244-1.288c3.523-2.347,4.474-7.107,2.126-10.629
		l-6.377-9.566V117.5h108.981h109.457v35.097l-6.377,9.566c-2.348,3.522-1.397,8.281,2.126,10.629
		c1.307,0.871,2.783,1.288,4.244,1.288c2.478,0,4.908-1.198,6.385-3.414l31.616-47.424c0.839-1.259,1.287-2.739,1.287-4.251v-15.808
		C297,98.95,293.568,95.518,289.335,95.518z M228.977,93.123h-80.715H70.897c-4.233,0-7.665-3.432-7.665-7.665
		s3.432-7.665,7.665-7.665h77.365h80.715c4.233,0,7.664,3.432,7.664,7.665C236.642,89.691,233.21,93.123,228.977,93.123z"/>
	<path style="fill:#26619B;" d="M70.897,93.123c-4.233,0-7.665-3.432-7.665-7.665s3.432-7.665,7.665-7.665h77.365v-29.7H57.28
		c-15.342,0-27.823,12.481-27.823,27.822v19.602H7.665C3.432,95.518,0,98.95,0,103.182v15.808c0,1.513,0.448,2.992,1.287,4.251
		l31.616,47.424c1.476,2.216,3.907,3.414,6.385,3.414c1.46,0,2.938-0.417,4.244-1.288c3.523-2.347,4.474-7.107,2.126-10.629
		l-6.377-9.566V117.5h108.981V93.123H70.897z"/>
	<path style="fill:#184C77;" d="M289.335,95.518H267.3V75.916c0-15.341-12.481-27.822-27.822-27.822h-91.216v29.7h80.716
		c4.233,0,7.665,3.432,7.665,7.665s-3.432,7.665-7.665,7.665h-80.716V117.5h109.457v35.098l-6.377,9.566
		c-2.348,3.522-1.397,8.281,2.126,10.629c1.307,0.871,2.783,1.288,4.244,1.288c2.477,0,4.908-1.199,6.385-3.414l31.616-47.424
		c0.839-1.259,1.287-2.739,1.287-4.251v-15.808C297,98.95,293.568,95.518,289.335,95.518z"/>
	<path style="fill:#5997D3;" d="M148.262,110.087H29.578v110.997c0,15.341,12.481,27.822,27.823,27.822h90.86h91.337
		c15.341,0,27.822-12.481,27.822-27.822V110.087H148.262z"/>
	<path style="fill:#66A7F7;" d="M29.578,110.087v110.997c0,15.341,12.481,27.822,27.823,27.822h90.86V110.087H29.578z"/>
	<path style="fill:#5997D3;" d="M148.262,110.087v138.819H239.6c15.341,0,27.822-12.481,27.822-27.822V110.087H148.262z"/>
	<path style="fill:#D1D2D3;" d="M183.233,177.452l-13.081,3.671l-13.03-7.523l13.031-7.523l13.08,3.671
		c0.389,0.109,0.781,0.161,1.167,0.161c1.884,0,3.615-1.244,4.149-3.147c0.643-2.292-0.694-4.672-2.987-5.316l-4.971-1.395
		l4.045-2.335c2.062-1.191,2.769-3.828,1.578-5.89c-1.192-2.062-3.827-2.768-5.89-1.578l-4.045,2.335l1.277-5.003
		c0.589-2.307-0.804-4.655-3.111-5.244c-2.317-0.589-4.656,0.804-5.244,3.111l-3.361,13.163l-13.031,7.523v-15.046l9.719-9.492
		c1.703-1.665,1.735-4.394,0.072-6.097c-1.665-1.702-4.392-1.735-6.097-0.072l-3.694,3.608v-4.672c0-2.381-1.93-4.311-4.311-4.311
		c-0.081,0-0.157,0.02-0.238,0.024c-2.268,0.126-4.074,1.988-4.074,4.287v4.672l-3.694-3.608c-1.704-1.662-4.432-1.632-6.097,0.072
		c-1.663,1.704-1.631,4.433,0.072,6.097l9.719,9.492v15.045l-13.031-7.523l-3.36-13.162c-0.589-2.307-2.939-3.7-5.244-3.111
		c-2.307,0.59-3.699,2.937-3.111,5.244l1.277,5.002l-4.046-2.336c-2.062-1.19-4.699-0.484-5.89,1.578
		c-1.19,2.062-0.484,4.699,1.578,5.89l4.046,2.336l-4.972,1.395c-2.292,0.644-3.629,3.024-2.987,5.316
		c0.534,1.903,2.265,3.147,4.149,3.147c0.385,0,0.778-0.052,1.167-0.161l13.08-3.671l13.03,7.523l-13.03,7.523l-13.08-3.671
		c-2.29-0.638-4.673,0.694-5.316,2.987c-0.643,2.292,0.694,4.672,2.987,5.316l4.972,1.395l-4.046,2.336
		c-2.062,1.191-2.769,3.828-1.578,5.89c0.799,1.383,2.248,2.156,3.738,2.156c0.732,0,1.473-0.186,2.152-0.578l4.046-2.336
		l-1.277,5.002c-0.589,2.307,0.804,4.655,3.111,5.244c0.358,0.091,0.717,0.135,1.069,0.135c1.924,0,3.677-1.297,4.175-3.246
		l3.36-13.162l13.031-7.523v15.046l-9.719,9.493c-1.703,1.663-1.735,4.393-0.071,6.096c1.663,1.704,4.395,1.736,6.096,0.071
		l3.694-3.608v4.672c0,2.3,1.805,4.162,4.074,4.287c0.08,0.004,0.156,0.024,0.238,0.024c2.381,0,4.311-1.93,4.311-4.311v-4.672
		l3.694,3.608c0.839,0.82,1.926,1.228,3.013,1.228c1.12,0,2.24-0.434,3.084-1.299c1.664-1.704,1.632-4.433-0.071-6.096l-9.719-9.493
		v-15.046l13.031,7.524l3.36,13.162c0.498,1.949,2.251,3.246,4.175,3.246c0.353,0,0.712-0.044,1.069-0.135
		c2.307-0.589,3.699-2.937,3.111-5.244l-1.277-5.002l4.045,2.335c0.679,0.392,1.42,0.578,2.152,0.578
		c1.49,0,2.939-0.774,3.738-2.156c1.19-2.062,0.484-4.699-1.578-5.89l-4.046-2.336l4.972-1.395c2.292-0.644,3.629-3.024,2.987-5.316
		C187.906,178.146,185.525,176.814,183.233,177.452z"/>
	<path style="fill:#FFFFFF;" d="M144.188,134.363v4.672l-3.694-3.608c-1.704-1.662-4.432-1.632-6.097,0.072
		c-1.664,1.704-1.631,4.433,0.072,6.097l9.719,9.492v15.045l-13.03-7.523l-3.36-13.162c-0.589-2.307-2.939-3.7-5.244-3.111
		c-2.307,0.589-3.699,2.937-3.111,5.244l1.277,5.002l-4.046-2.336c-2.062-1.19-4.699-0.484-5.89,1.578
		c-1.19,2.062-0.484,4.699,1.578,5.89l4.046,2.336l-4.972,1.395c-2.292,0.644-3.629,3.024-2.986,5.316
		c0.534,1.903,2.265,3.147,4.149,3.147c0.385,0,0.777-0.052,1.167-0.161l13.08-3.671l13.03,7.523l-13.03,7.523l-13.08-3.671
		c-2.29-0.638-4.673,0.694-5.316,2.986c-0.643,2.292,0.694,4.672,2.986,5.316l4.972,1.395l-4.046,2.336
		c-2.062,1.191-2.768,3.828-1.578,5.89c0.799,1.383,2.248,2.157,3.738,2.157c0.732,0,1.473-0.186,2.152-0.578l4.046-2.336
		l-1.277,5.002c-0.589,2.307,0.804,4.655,3.111,5.244c0.358,0.091,0.717,0.135,1.069,0.135c1.924,0,3.677-1.297,4.175-3.246
		l3.36-13.162l13.03-7.523v15.046l-9.719,9.493c-1.703,1.664-1.736,4.393-0.071,6.096c1.663,1.704,4.395,1.736,6.096,0.071
		l3.694-3.608v4.672c0,2.3,1.805,4.162,4.074,4.287v-87.052C145.994,130.201,144.188,132.063,144.188,134.363z"/>
	<path style="fill:#D1D2D3;" d="M183.233,177.452l-13.081,3.671l-13.03-7.523l13.03-7.523l13.08,3.671
		c0.389,0.109,0.781,0.161,1.167,0.161c1.884,0,3.615-1.244,4.149-3.147c0.643-2.292-0.694-4.672-2.986-5.316l-4.971-1.395
		l4.045-2.335c2.062-1.191,2.768-3.828,1.578-5.89c-1.192-2.062-3.827-2.768-5.89-1.578l-4.045,2.335l1.277-5.003
		c0.589-2.307-0.804-4.655-3.111-5.244c-2.317-0.589-4.656,0.804-5.244,3.111l-3.361,13.163l-13.031,7.523v-15.046l9.719-9.492
		c1.703-1.664,1.736-4.394,0.072-6.097c-1.664-1.702-4.392-1.735-6.097-0.072l-3.694,3.608v-4.672c0-2.381-1.93-4.311-4.311-4.311
		c-0.081,0-0.157,0.02-0.238,0.024v87.052c0.08,0.004,0.156,0.024,0.238,0.024c2.381,0,4.311-1.93,4.311-4.311v-4.672l3.694,3.608
		c0.839,0.82,1.925,1.228,3.013,1.228c1.12,0,2.24-0.434,3.084-1.299c1.664-1.704,1.632-4.433-0.071-6.096l-9.719-9.493V181.07
		l13.032,7.524l3.36,13.162c0.498,1.949,2.251,3.246,4.175,3.246c0.353,0,0.712-0.044,1.069-0.135
		c2.307-0.589,3.699-2.937,3.111-5.244l-1.277-5.002l4.045,2.335c0.679,0.392,1.42,0.578,2.152,0.578
		c1.489,0,2.939-0.774,3.738-2.157c1.19-2.062,0.484-4.699-1.578-5.89l-4.046-2.336l4.972-1.395
		c2.292-0.644,3.629-3.024,2.986-5.316C187.906,178.146,185.525,176.814,183.233,177.452z"/>
</g>
</svg>